<svg 
 xmlns="http://www.w3.org/2000/svg"
 xmlns:xlink="http://www.w3.org/1999/xlink"
 width="210px" height="58px">
<path fill-rule="evenodd"  fill="rgb(255, 255, 255)"
 d="M132.374,16.630 L137.343,16.630 L137.343,36.529 L132.374,36.529 L132.374,16.630 Z"/>
<path fill-rule="evenodd"  fill="rgb(255, 255, 255)"
 d="M71.968,33.182 L52.937,33.182 L52.937,16.630 L47.968,16.630 L47.968,36.498 L71.968,36.498 L71.968,33.182 Z"/>
<path fill-rule="evenodd"  fill="rgb(255, 255, 255)"
 d="M75.280,36.498 L75.280,16.630 L99.280,16.630 L99.280,19.916 L80.249,19.916 L80.249,24.890 L92.656,24.890 L92.656,28.207 L80.249,28.207 L80.249,33.182 L99.280,33.182 L99.280,36.498 L75.280,36.498 Z"/>
<path fill-rule="evenodd"  fill="rgb(255, 255, 255)"
 d="M129.62,16.630 L123.280,16.630 L115.843,23.764 L108.374,16.630 L102.593,16.630 L112.937,26.548 L102.593,36.498 L108.374,36.498 L115.843,29.333 L123.280,36.498 L129.62,36.498 L118.718,26.548 L129.62,16.630 Z"/>
<path fill-rule="evenodd"  fill="rgb(255, 255, 255)"
 d="M196.93,16.630 L196.93,31.899 L179.562,16.630 L174.593,16.630 L174.593,36.498 L179.562,36.498 L179.562,21.198 L196.93,36.498 L201.62,36.498 L201.62,16.630 L196.93,16.630 Z"/>
<path fill-rule="evenodd"  fill="rgb(255, 255, 255)"
 d="M167.937,36.498 L144.780,36.498 C143.875,36.498 143.124,35.747 143.124,34.839 L143.124,18.257 C143.124,17.350 143.875,16.599 144.780,16.599 L167.937,16.599 C168.843,16.599 169.593,17.350 169.593,18.257 L169.593,34.839 C169.593,35.747 168.843,36.498 167.937,36.498 ZM164.656,21.167 C164.656,20.479 164.93,19.916 163.405,19.916 L149.343,19.916 C148.655,19.916 148.93,20.479 148.93,21.167 L148.93,31.930 C148.93,32.619 148.655,33.182 149.343,33.182 L163.405,33.182 C164.93,33.182 164.656,32.619 164.656,31.930 L164.656,21.167 Z"/>
<path fill-rule="evenodd"  fill="rgb(255, 255, 255)"
 d="M127.624,4.179 C127.499,4.366 127.249,4.460 127.62,4.335 C127.62,4.335 119.874,2.114 99.218,2.114 C76.187,2.114 50.405,11.844 32.187,20.417 L43.780,36.498 L37.999,36.498 L28.374,22.262 C18.718,26.956 11.718,31.54 9.218,32.555 L6.562,36.466 L0.780,36.466 L22.280,6.650 L29.655,16.849 C47.30,9.466 72.874,0.862 99.249,0.862 C119.968,0.862 127.530,3.616 127.530,3.616 C127.749,3.740 127.811,3.991 127.624,4.179 ZM22.312,13.315 L15.374,23.545 C18.187,22.106 21.718,20.386 25.874,18.539 L22.312,13.315 Z"/>
<path fill-rule="evenodd"  fill="rgb(255, 255, 255)"
 d="M134.874,14.128 C134.656,14.128 134.468,13.940 134.468,13.721 C134.468,13.189 135.124,12.95 133.437,9.153 C131.749,6.212 130.468,6.275 129.999,5.993 C129.812,5.868 129.718,5.618 129.843,5.430 C129.968,5.242 130.218,5.179 130.406,5.274 C130.874,5.523 131.468,6.682 134.843,6.682 C138.218,6.682 138.843,5.556 139.281,5.274 C139.468,5.148 139.718,5.242 139.843,5.430 C139.968,5.618 139.874,5.868 139.687,5.993 C139.218,6.275 137.937,6.212 136.249,9.153 C134.561,12.95 135.249,13.158 135.218,13.721 C135.280,13.940 135.93,14.128 134.874,14.128 Z"/>
<path fill-rule="evenodd"  fill="rgb(255, 255, 255)"
 d="M206.93,21.198 C204.468,21.198 203.156,19.885 203.156,18.257 C203.156,16.630 204.468,15.317 206.93,15.317 C207.718,15.317 209.30,16.630 209.30,18.257 C209.30,19.885 207.718,21.198 206.93,21.198 ZM206.93,15.754 C204.718,15.754 203.593,16.881 203.593,18.257 C203.593,19.634 204.718,20.761 206.93,20.761 C207.468,20.761 208.593,19.634 208.593,18.257 C208.593,16.881 207.468,15.754 206.93,15.754 ZM206.687,19.728 L206.218,18.477 L205.530,18.477 L205.530,19.728 L204.968,19.728 L204.968,16.630 L205.999,16.630 C206.718,16.630 207.249,16.787 207.249,17.632 C207.249,18.69 207.62,18.226 206.718,18.383 L207.280,19.728 L206.687,19.728 ZM206.155,17.162 L205.530,17.162 L205.530,17.976 L206.218,17.976 C206.468,17.976 206.687,17.851 206.687,17.570 C206.687,17.257 206.437,17.162 206.155,17.162 Z"/>
<path fill-rule="evenodd"  fill="rgb(255, 255, 255)"
 d="M10.406,57.773 L9.62,54.50 L3.843,54.50 L2.468,57.773 L0.780,57.773 L5.593,45.414 L7.405,45.414 L12.218,57.773 L10.406,57.773 ZM6.499,46.885 L6.468,46.885 L4.374,52.642 L8.562,52.642 L6.499,46.885 Z"/>
<path fill-rule="evenodd"  fill="rgb(255, 255, 255)"
 d="M14.62,55.771 C14.187,55.990 14.374,56.177 14.593,56.303 C14.812,56.427 15.62,56.521 15.343,56.584 C15.624,56.647 15.905,56.678 16.218,56.678 C16.437,56.678 16.687,56.647 16.936,56.615 C17.187,56.584 17.437,56.521 17.624,56.427 C17.843,56.334 17.999,56.208 18.156,56.21 C18.280,55.833 18.374,55.614 18.374,55.332 C18.374,54.957 18.218,54.675 17.937,54.456 C17.655,54.269 17.280,54.112 16.843,53.988 C16.406,53.862 15.936,53.768 15.437,53.674 C14.937,53.580 14.468,53.424 14.30,53.267 C13.593,53.79 13.249,52.829 12.937,52.516 C12.655,52.203 12.499,51.735 12.499,51.172 C12.499,50.733 12.593,50.327 12.812,50.14 C12.999,49.700 13.281,49.419 13.593,49.232 C13.906,49.44 14.281,48.888 14.656,48.793 C15.62,48.700 15.437,48.637 15.843,48.637 C16.343,48.637 16.812,48.668 17.249,48.762 C17.686,48.857 18.62,49.12 18.374,49.200 C18.687,49.387 18.968,49.700 19.155,50.76 C19.343,50.452 19.468,50.890 19.499,51.422 L18.30,51.422 C17.999,51.140 17.937,50.890 17.812,50.702 C17.686,50.514 17.531,50.358 17.311,50.232 C17.124,50.108 16.905,50.45 16.655,49.982 C16.406,49.919 16.187,49.888 15.936,49.888 C15.718,49.888 15.499,49.919 15.280,49.951 C15.62,49.982 14.843,50.45 14.656,50.139 C14.468,50.232 14.312,50.327 14.218,50.483 C14.93,50.640 14.30,50.827 14.30,51.46 C14.30,51.296 14.124,51.516 14.312,51.671 C14.499,51.828 14.718,51.985 14.999,52.79 C15.280,52.203 15.593,52.266 15.936,52.360 C16.280,52.423 16.624,52.516 16.968,52.580 C17.343,52.673 17.686,52.767 18.62,52.861 C18.405,52.986 18.718,53.143 18.999,53.330 C19.281,53.518 19.499,53.768 19.656,54.50 C19.811,54.331 19.906,54.707 19.906,55.113 C19.906,55.645 19.780,56.115 19.562,56.458 C19.343,56.802 19.30,57.116 18.687,57.334 C18.312,57.554 17.905,57.711 17.468,57.804 C16.999,57.898 16.562,57.929 16.124,57.929 C15.624,57.929 15.155,57.866 14.718,57.773 C14.281,57.678 13.874,57.491 13.531,57.272 C13.187,57.22 12.906,56.709 12.687,56.334 C12.468,55.958 12.374,55.489 12.343,54.926 L13.811,54.926 C13.843,55.270 13.906,55.520 14.62,55.771 Z"/>
<path fill-rule="evenodd"  fill="rgb(255, 255, 255)"
 d="M24.999,48.824 L24.999,50.108 L23.218,50.108 L23.218,55.645 C23.218,55.833 23.218,55.958 23.249,56.52 C23.280,56.146 23.343,56.239 23.405,56.303 C23.499,56.365 23.593,56.396 23.749,56.427 C23.906,56.458 24.93,56.458 24.312,56.458 L24.999,56.458 L24.999,57.742 L23.874,57.742 C23.499,57.742 23.156,57.711 22.905,57.678 C22.624,57.616 22.406,57.522 22.249,57.397 C22.93,57.272 21.968,57.53 21.874,56.802 C21.781,56.553 21.749,56.208 21.749,55.802 L21.749,50.108 L20.249,50.108 L20.249,48.824 L21.781,48.824 L21.781,46.134 L23.249,46.134 L23.249,48.824 L24.999,48.824 Z"/>
<path fill-rule="evenodd"  fill="rgb(255, 255, 255)"
 d="M27.874,48.824 L27.874,50.702 L27.905,50.702 C28.249,49.982 28.687,49.451 29.218,49.106 C29.749,48.762 30.405,48.606 31.187,48.606 L31.187,50.170 C30.593,50.170 30.93,50.263 29.686,50.420 C29.280,50.577 28.937,50.827 28.687,51.140 C28.437,51.453 28.249,51.828 28.124,52.266 C27.999,52.704 27.936,53.236 27.936,53.799 L27.936,57.773 L26.499,57.773 L26.499,48.824 L27.874,48.824 L27.874,48.824 Z"/>
<path fill-rule="evenodd"  fill="rgb(255, 255, 255)"
 d="M40.249,57.711 C39.999,57.866 39.656,57.929 39.186,57.929 C38.812,57.929 38.499,57.835 38.281,57.616 C38.62,57.397 37.937,57.53 37.937,56.584 C37.530,57.84 37.61,57.429 36.531,57.616 C35.999,57.804 35.405,57.929 34.781,57.929 C34.374,57.929 33.999,57.898 33.624,57.804 C33.249,57.711 32.937,57.554 32.687,57.366 C32.437,57.179 32.218,56.928 32.62,56.584 C31.906,56.271 31.843,55.895 31.843,55.427 C31.843,54.926 31.937,54.518 32.93,54.175 C32.281,53.862 32.499,53.580 32.780,53.392 C33.62,53.205 33.374,53.48 33.749,52.923 C34.124,52.829 34.468,52.735 34.874,52.673 C35.280,52.580 35.655,52.547 36.30,52.485 C36.405,52.454 36.718,52.391 36.999,52.298 C37.281,52.235 37.499,52.110 37.656,51.985 C37.811,51.828 37.906,51.640 37.906,51.359 C37.906,51.46 37.843,50.764 37.718,50.577 C37.593,50.389 37.436,50.232 37.249,50.139 C37.61,50.45 36.843,49.951 36.624,49.919 C36.374,49.888 36.156,49.857 35.937,49.857 C35.311,49.857 34.781,49.982 34.374,50.201 C33.968,50.452 33.749,50.890 33.687,51.547 L32.218,51.547 C32.249,50.984 32.343,50.514 32.562,50.139 C32.780,49.764 33.31,49.451 33.406,49.200 C33.749,48.950 34.155,48.793 34.593,48.700 C35.30,48.606 35.499,48.543 36.30,48.543 C36.437,48.543 36.843,48.575 37.218,48.637 C37.624,48.700 37.968,48.824 38.312,48.981 C38.624,49.169 38.905,49.420 39.93,49.732 C39.280,50.45 39.374,50.483 39.374,50.984 L39.374,55.583 C39.374,55.926 39.406,56.177 39.437,56.334 C39.468,56.490 39.624,56.584 39.843,56.584 C39.968,56.584 40.124,56.553 40.280,56.521 L40.280,57.711 L40.249,57.711 ZM37.811,53.143 L37.811,53.160 C37.627,53.279 37.392,53.395 37.124,53.456 C36.812,53.518 36.499,53.580 36.187,53.611 C35.874,53.643 35.531,53.706 35.187,53.737 C34.843,53.799 34.562,53.862 34.280,53.988 C34.31,54.112 33.812,54.269 33.624,54.487 C33.468,54.707 33.374,54.988 33.374,55.363 C33.374,55.614 33.437,55.802 33.530,55.990 C33.624,56.177 33.749,56.303 33.905,56.396 C34.62,56.490 34.249,56.584 34.437,56.615 C34.655,56.647 34.874,56.678 35.93,56.678 C35.562,56.678 35.999,56.615 36.343,56.490 C36.687,56.365 36.968,56.177 37.187,55.990 C37.405,55.802 37.562,55.583 37.656,55.332 C37.749,55.82 37.811,54.863 37.811,54.675 L37.811,53.160 C37.821,53.154 37.834,53.149 37.843,53.143 L37.811,53.143 Z"/>
<path fill-rule="evenodd"  fill="rgb(255, 255, 255)"
 d="M41.781,45.414 L41.781,46.791 L48.843,46.791 L41.187,56.365 L41.187,57.742 L50.999,57.742 L50.999,56.365 L43.124,56.365 L50.780,46.791 L50.780,45.414 L41.781,45.414 Z"/>
<path fill-rule="evenodd"  fill="rgb(255, 255, 255)"
 d="M53.343,53.706 C53.343,54.112 53.374,54.456 53.468,54.831 C53.562,55.176 53.749,55.489 53.968,55.771 C54.187,56.52 54.499,56.271 54.843,56.427 C55.187,56.584 55.624,56.678 56.93,56.678 C56.718,56.678 57.218,56.521 57.624,56.239 C58.31,55.958 58.280,55.520 58.406,54.926 L59.843,54.926 C59.686,55.926 59.249,56.678 58.593,57.179 C57.936,57.678 57.93,57.929 56.62,57.929 C55.343,57.929 54.718,57.804 54.218,57.585 C53.686,57.366 53.249,57.22 52.905,56.615 C52.562,56.208 52.280,55.708 52.93,55.113 C51.905,54.551 51.812,53.893 51.781,53.236 C51.781,52.547 51.874,51.922 52.93,51.359 C52.311,50.795 52.593,50.296 52.968,49.888 C53.343,49.482 53.781,49.138 54.312,48.919 C54.843,48.700 55.374,48.575 55.999,48.575 C56.780,48.575 57.468,48.731 57.968,49.75 C58.499,49.387 58.905,49.826 59.218,50.327 C59.531,50.827 59.749,51.390 59.874,51.985 C59.999,52.580 60.30,53.143 60.30,53.706 L53.343,53.706 ZM58.249,51.453 C58.124,51.140 57.936,50.859 57.718,50.640 C57.499,50.420 57.218,50.232 56.937,50.108 C56.624,49.982 56.281,49.919 55.937,49.919 C55.562,49.919 55.218,49.982 54.906,50.108 C54.593,50.232 54.343,50.420 54.124,50.640 C53.906,50.859 53.718,51.140 53.593,51.453 C53.468,51.766 53.405,52.79 53.374,52.423 L58.499,52.423 C58.437,52.79 58.374,51.766 58.249,51.453 Z"/>
<path fill-rule="evenodd"  fill="rgb(255, 255, 255)"
 d="M62.656,48.824 L62.656,50.232 L62.687,50.232 C63.312,49.138 64.249,48.606 65.593,48.606 C66.187,48.606 66.655,48.700 67.62,48.857 C67.468,49.12 67.780,49.232 67.999,49.544 C68.218,49.857 68.405,50.170 68.499,50.577 C68.593,50.984 68.656,51.422 68.656,51.891 L68.656,57.773 L67.187,57.773 L67.187,51.735 C67.187,51.172 67.30,50.733 66.687,50.420 C66.374,50.108 65.906,49.951 65.343,49.951 C64.905,49.951 64.499,50.14 64.187,50.170 C63.874,50.296 63.593,50.514 63.374,50.764 C63.155,51.15 62.999,51.327 62.874,51.640 C62.780,51.985 62.718,52.360 62.718,52.767 L62.718,57.804 L61.250,57.804 L61.250,48.857 L62.656,48.857 L62.656,48.824 Z"/>
<path fill-rule="evenodd"  fill="rgb(255, 255, 255)"
 d="M71.218,53.706 C71.218,54.112 71.249,54.456 71.343,54.831 C71.437,55.176 71.624,55.489 71.843,55.771 C72.61,56.52 72.374,56.271 72.718,56.427 C73.62,56.584 73.499,56.678 73.968,56.678 C74.593,56.678 75.93,56.521 75.499,56.239 C75.905,55.958 76.156,55.520 76.280,54.926 L77.718,54.926 C77.562,55.926 77.156,56.678 76.468,57.179 C75.812,57.678 74.968,57.929 73.937,57.929 C73.218,57.929 72.593,57.804 72.93,57.585 C71.562,57.366 71.124,57.22 70.781,56.615 C70.437,56.208 70.156,55.708 69.968,55.113 C69.781,54.551 69.687,53.893 69.655,53.236 C69.655,52.547 69.749,51.922 69.968,51.359 C70.187,50.795 70.468,50.296 70.843,49.888 C71.218,49.482 71.655,49.138 72.187,48.919 C72.718,48.700 73.249,48.575 73.874,48.575 C74.656,48.575 75.343,48.731 75.843,49.75 C76.374,49.387 76.781,49.826 77.93,50.327 C77.405,50.827 77.624,51.390 77.749,51.985 C77.874,52.580 77.906,53.143 77.906,53.706 L71.218,53.706 ZM76.124,51.453 C75.999,51.140 75.812,50.859 75.593,50.640 C75.374,50.420 75.93,50.232 74.812,50.108 C74.499,49.982 74.155,49.919 73.811,49.919 C73.436,49.919 73.93,49.982 72.780,50.108 C72.468,50.232 72.218,50.420 71.999,50.640 C71.780,50.859 71.593,51.140 71.468,51.453 C71.343,51.766 71.280,52.79 71.249,52.423 L76.374,52.423 C76.343,52.79 76.249,51.766 76.124,51.453 Z"/>
<path fill-rule="evenodd"  fill="rgb(255, 255, 255)"
 d="M84.531,50.358 C84.156,50.45 83.655,49.888 83.30,49.888 C82.499,49.888 82.62,49.982 81.687,50.170 C81.343,50.358 81.31,50.640 80.843,50.952 C80.624,51.265 80.468,51.640 80.374,52.79 C80.281,52.485 80.249,52.923 80.249,53.392 C80.249,53.799 80.312,54.206 80.405,54.613 C80.499,55.19 80.656,55.363 80.874,55.645 C81.93,55.958 81.343,56.208 81.687,56.365 C82.31,56.553 82.406,56.647 82.874,56.647 C83.593,56.647 84.156,56.458 84.562,56.83 C84.968,55.708 85.218,55.176 85.312,54.487 L86.812,54.487 C86.656,55.583 86.249,56.458 85.562,57.53 C84.906,57.647 83.999,57.960 82.843,57.960 C82.156,57.960 81.561,57.835 81.31,57.647 C80.499,57.429 80.62,57.116 79.718,56.709 C79.374,56.303 79.93,55.833 78.937,55.270 C78.749,54.707 78.655,54.112 78.655,53.424 C78.655,52.735 78.749,52.141 78.906,51.547 C79.93,50.952 79.343,50.452 79.687,50.14 C80.31,49.576 80.468,49.232 80.999,48.981 C81.530,48.731 82.156,48.606 82.843,48.606 C83.343,48.606 83.812,48.668 84.281,48.793 C84.718,48.919 85.124,49.106 85.468,49.356 C85.811,49.607 86.93,49.919 86.312,50.327 C86.530,50.702 86.656,51.172 86.718,51.704 L85.187,51.704 C85.155,51.108 84.906,50.671 84.531,50.358 Z"/>
<path fill-rule="evenodd"  fill="rgb(255, 255, 255)"
 d="M96.61,57.711 C95.812,57.866 95.468,57.929 94.999,57.929 C94.624,57.929 94.311,57.835 94.93,57.616 C93.874,57.397 93.749,57.53 93.749,56.584 C93.343,57.84 92.874,57.429 92.343,57.616 C91.811,57.835 91.218,57.929 90.593,57.929 C90.187,57.929 89.812,57.898 89.437,57.804 C89.62,57.711 88.749,57.554 88.499,57.366 C88.249,57.179 88.31,56.928 87.874,56.584 C87.718,56.271 87.655,55.895 87.655,55.427 C87.655,54.926 87.749,54.518 87.905,54.175 C88.93,53.862 88.311,53.580 88.593,53.392 C88.874,53.205 89.187,53.48 89.562,52.923 C89.937,52.829 90.281,52.735 90.687,52.673 C91.93,52.580 91.468,52.547 91.843,52.485 C92.218,52.454 92.530,52.391 92.812,52.298 C93.93,52.235 93.312,52.110 93.468,51.985 C93.624,51.828 93.718,51.640 93.718,51.359 C93.718,51.46 93.655,50.764 93.530,50.577 C93.406,50.389 93.249,50.232 93.62,50.139 C92.874,50.45 92.656,49.951 92.437,49.919 C92.186,49.888 91.968,49.857 91.749,49.857 C91.124,49.857 90.593,49.982 90.187,50.201 C89.780,50.452 89.562,50.890 89.499,51.547 L88.31,51.547 C88.62,50.984 88.156,50.514 88.374,50.139 C88.593,49.764 88.874,49.451 89.218,49.200 C89.562,48.950 89.968,48.793 90.405,48.700 C90.843,48.606 91.312,48.543 91.843,48.543 C92.249,48.543 92.656,48.575 93.31,48.637 C93.437,48.700 93.781,48.824 94.124,48.981 C94.437,49.169 94.718,49.420 94.905,49.732 C95.93,50.45 95.187,50.483 95.187,50.984 L95.187,55.583 C95.187,55.926 95.218,56.177 95.249,56.334 C95.280,56.490 95.437,56.584 95.655,56.584 C95.780,56.584 95.937,56.553 96.93,56.521 L96.93,57.711 L96.61,57.711 ZM93.655,53.143 L93.655,53.160 C93.471,53.279 93.236,53.395 92.968,53.456 C92.656,53.518 92.343,53.580 92.31,53.611 C91.718,53.643 91.374,53.706 91.30,53.737 C90.687,53.799 90.405,53.862 90.124,53.988 C89.874,54.112 89.655,54.269 89.468,54.487 C89.312,54.707 89.218,54.988 89.218,55.363 C89.218,55.614 89.280,55.802 89.374,55.990 C89.468,56.146 89.593,56.303 89.749,56.396 C89.906,56.490 90.93,56.584 90.281,56.615 C90.499,56.647 90.718,56.678 90.937,56.678 C91.405,56.678 91.843,56.615 92.186,56.490 C92.530,56.365 92.812,56.177 93.31,55.990 C93.249,55.802 93.406,55.583 93.499,55.332 C93.593,55.82 93.655,54.863 93.655,54.675 L93.655,53.160 C93.665,53.154 93.678,53.149 93.687,53.143 L93.655,53.143 Z"/>
<path fill-rule="evenodd"  fill="rgb(255, 255, 255)"
 d="M110.843,52.172 C111.62,52.329 111.249,52.516 111.374,52.767 C111.499,52.986 111.593,53.236 111.655,53.518 C111.718,53.799 111.781,54.81 111.812,54.394 C111.843,54.707 111.843,54.988 111.874,55.301 C111.874,55.614 111.905,55.926 111.968,56.208 C111.999,56.521 112.93,56.802 112.156,57.53 C112.249,57.334 112.374,57.554 112.531,57.773 L110.687,57.773 C110.561,57.647 110.499,57.460 110.468,57.241 C110.437,57.22 110.406,56.771 110.406,56.490 C110.406,56.208 110.374,55.926 110.374,55.614 C110.374,55.301 110.343,54.988 110.281,54.707 C110.249,54.394 110.186,54.112 110.93,53.862 C109.999,53.611 109.905,53.361 109.780,53.143 C109.624,52.955 109.437,52.767 109.187,52.673 C108.937,52.547 108.624,52.485 108.218,52.485 L104.218,52.485 L104.218,57.773 L102.593,57.773 L102.593,45.414 L108.343,45.414 C109.530,45.414 110.437,45.696 111.93,46.291 C111.749,46.853 112.93,47.667 112.93,48.668 C112.93,49.420 111.936,50.76 111.593,50.640 C111.249,51.203 110.718,51.578 109.968,51.797 L109.968,51.828 C110.312,51.891 110.624,52.16 110.843,52.172 ZM110.218,49.982 C110.374,49.700 110.437,49.325 110.437,48.888 C110.437,48.261 110.249,47.761 109.905,47.354 C109.562,46.948 108.999,46.760 108.218,46.760 L104.124,46.760 L104.124,51.77 L107.531,51.77 C107.999,51.108 108.343,51.77 108.687,51.15 C109.30,50.952 109.343,50.859 109.593,50.671 C109.843,50.514 110.62,50.263 110.218,49.982 Z"/>
<path fill-rule="evenodd"  fill="rgb(255, 255, 255)"
 d="M121.687,57.711 C121.437,57.866 121.93,57.929 120.624,57.929 C120.249,57.929 119.937,57.835 119.718,57.616 C119.499,57.397 119.374,57.53 119.374,56.584 C118.968,57.84 118.499,57.429 117.968,57.616 C117.437,57.835 116.843,57.929 116.218,57.929 C115.811,57.929 115.437,57.898 115.62,57.804 C114.687,57.711 114.374,57.554 114.124,57.366 C113.874,57.179 113.655,56.928 113.499,56.584 C113.343,56.271 113.280,55.895 113.280,55.427 C113.280,54.926 113.374,54.518 113.531,54.175 C113.718,53.862 113.937,53.580 114.218,53.392 C114.499,53.205 114.811,53.48 115.187,52.923 C115.562,52.829 115.905,52.735 116.312,52.673 C116.718,52.580 117.93,52.547 117.468,52.485 C117.843,52.454 118.156,52.391 118.437,52.298 C118.718,52.235 118.937,52.110 119.93,51.985 C119.249,51.828 119.343,51.640 119.343,51.359 C119.343,51.46 119.280,50.764 119.156,50.577 C119.30,50.389 118.874,50.232 118.686,50.139 C118.499,50.45 118.280,49.951 118.62,49.919 C117.812,49.888 117.593,49.857 117.374,49.857 C116.749,49.857 116.218,49.982 115.811,50.201 C115.405,50.452 115.187,50.890 115.124,51.547 L113.655,51.547 C113.686,50.984 113.780,50.514 113.999,50.139 C114.218,49.764 114.468,49.451 114.843,49.200 C115.187,48.950 115.593,48.793 116.31,48.700 C116.468,48.606 116.937,48.543 117.468,48.543 C117.874,48.543 118.280,48.575 118.655,48.637 C119.62,48.700 119.405,48.824 119.749,48.981 C120.61,49.169 120.343,49.420 120.531,49.732 C120.718,50.45 120.811,50.483 120.811,50.984 L120.811,55.583 C120.811,55.926 120.843,56.177 120.874,56.334 C120.906,56.490 121.62,56.584 121.281,56.584 C121.405,56.584 121.562,56.553 121.718,56.521 L121.718,57.711 L121.687,57.711 ZM119.280,53.143 L119.280,53.160 C119.96,53.279 118.860,53.395 118.593,53.456 C118.280,53.518 117.968,53.580 117.655,53.611 C117.343,53.643 116.999,53.706 116.656,53.737 C116.312,53.799 116.31,53.862 115.749,53.988 C115.499,54.112 115.281,54.269 115.93,54.487 C114.937,54.707 114.843,54.988 114.843,55.363 C114.843,55.614 114.906,55.802 114.999,55.990 C115.93,56.146 115.218,56.303 115.374,56.396 C115.530,56.490 115.718,56.584 115.905,56.615 C116.124,56.647 116.343,56.678 116.561,56.678 C117.31,56.678 117.468,56.615 117.812,56.490 C118.156,56.365 118.437,56.177 118.655,55.990 C118.874,55.802 119.30,55.583 119.124,55.332 C119.218,55.82 119.280,54.863 119.280,54.675 L119.280,53.160 C119.290,53.154 119.303,53.149 119.312,53.143 L119.280,53.143 Z"/>
<path fill-rule="evenodd"  fill="rgb(255, 255, 255)"
 d="M124.437,48.824 L124.437,50.702 L124.468,50.702 C124.812,49.982 125.249,49.451 125.780,49.106 C126.312,48.762 126.968,48.606 127.749,48.606 L127.749,50.170 C127.155,50.170 126.656,50.263 126.249,50.420 C125.843,50.577 125.499,50.827 125.249,51.140 C124.999,51.453 124.812,51.828 124.686,52.266 C124.562,52.704 124.499,53.236 124.499,53.799 L124.499,57.773 L123.62,57.773 L123.62,48.824 L124.437,48.824 L124.437,48.824 Z"/>
<path fill-rule="evenodd"  fill="rgb(255, 255, 255)"
 d="M129.874,53.706 C129.874,54.112 129.905,54.456 129.999,54.831 C130.93,55.176 130.280,55.489 130.499,55.771 C130.718,56.52 131.30,56.271 131.374,56.427 C131.718,56.584 132.155,56.678 132.624,56.678 C133.249,56.678 133.749,56.521 134.155,56.239 C134.561,55.958 134.812,55.520 134.936,54.926 L136.374,54.926 C136.218,55.926 135.781,56.678 135.124,57.179 C134.468,57.678 133.624,57.929 132.593,57.929 C131.874,57.929 131.249,57.804 130.749,57.585 C130.218,57.366 129.781,57.22 129.437,56.615 C129.93,56.208 128.812,55.708 128.624,55.113 C128.437,54.551 128.343,53.893 128.312,53.236 C128.312,52.547 128.406,51.922 128.624,51.359 C128.843,50.795 129.124,50.296 129.499,49.888 C129.874,49.482 130.311,49.138 130.843,48.919 C131.343,48.700 131.906,48.575 132.531,48.575 C133.312,48.575 133.999,48.731 134.499,49.75 C135.31,49.387 135.437,49.826 135.749,50.327 C136.62,50.827 136.280,51.390 136.405,51.985 C136.531,52.580 136.562,53.143 136.562,53.706 L129.874,53.706 ZM134.780,51.453 C134.656,51.140 134.468,50.859 134.249,50.640 C134.31,50.420 133.749,50.232 133.468,50.108 C133.155,49.982 132.811,49.919 132.468,49.919 C132.93,49.919 131.749,49.982 131.437,50.108 C131.124,50.232 130.874,50.420 130.655,50.640 C130.437,50.859 130.249,51.140 130.124,51.453 C129.999,51.766 129.936,52.79 129.905,52.423 L135.31,52.423 C134.968,52.79 134.905,51.766 134.780,51.453 Z"/>
<path fill-rule="evenodd"  fill="rgb(255, 255, 255)"
 d="M152.968,54.50 C152.749,54.863 152.374,55.520 151.905,56.83 C151.437,56.615 150.811,57.53 150.61,57.334 C149.312,57.616 148.437,57.773 147.406,57.773 L143.187,57.773 L143.187,45.414 L147.406,45.414 C149.312,45.414 150.780,45.915 151.780,46.853 C152.812,47.824 153.312,49.294 153.312,51.296 C153.312,52.329 153.187,53.267 152.968,54.50 ZM151.468,49.544 C151.312,48.950 151.93,48.480 150.749,48.43 C150.436,47.636 149.999,47.323 149.468,47.104 C148.937,46.885 148.311,46.791 147.562,46.791 L144.811,46.791 L144.811,56.365 L147.562,56.365 C147.749,56.365 147.968,56.365 148.249,56.334 C148.531,56.303 148.812,56.239 149.124,56.115 C149.437,55.990 149.749,55.833 150.61,55.645 C150.374,55.427 150.656,55.145 150.874,54.800 C151.124,54.456 151.312,53.988 151.468,53.456 C151.624,52.923 151.687,52.266 151.687,51.516 C151.687,50.764 151.624,50.108 151.468,49.544 Z"/>
<path fill-rule="evenodd"  fill="rgb(255, 255, 255)"
 d="M154.593,57.742 L154.593,48.793 L156.62,48.793 L156.62,57.742 L154.593,57.742 ZM154.593,45.414 L156.62,45.414 L156.62,47.198 L154.593,47.198 L154.593,45.414 Z"/>
<path fill-rule="evenodd"  fill="rgb(255, 255, 255)"
 d="M159.155,55.771 C159.280,55.990 159.468,56.177 159.687,56.303 C159.905,56.427 160.156,56.521 160.437,56.584 C160.718,56.647 160.999,56.678 161.312,56.678 C161.531,56.678 161.780,56.647 162.30,56.615 C162.281,56.584 162.530,56.521 162.718,56.427 C162.937,56.334 163.93,56.208 163.249,56.21 C163.374,55.833 163.468,55.614 163.468,55.332 C163.468,54.957 163.312,54.675 163.31,54.456 C162.749,54.269 162.374,54.112 161.937,53.988 C161.499,53.862 161.30,53.768 160.531,53.674 C160.30,53.580 159.562,53.424 159.124,53.267 C158.687,53.79 158.343,52.829 158.31,52.516 C157.749,52.203 157.593,51.735 157.593,51.172 C157.593,50.733 157.687,50.327 157.905,50.14 C158.93,49.700 158.374,49.419 158.687,49.232 C158.999,49.44 159.374,48.888 159.749,48.793 C160.156,48.700 160.531,48.637 160.937,48.637 C161.437,48.637 161.906,48.668 162.343,48.762 C162.780,48.857 163.155,49.12 163.468,49.200 C163.780,49.419 164.62,49.700 164.249,50.76 C164.437,50.452 164.561,50.890 164.593,51.422 L163.124,51.422 C163.93,51.140 163.31,50.890 162.906,50.702 C162.780,50.514 162.624,50.358 162.405,50.232 C162.218,50.108 161.999,50.45 161.749,49.982 C161.499,49.919 161.280,49.888 161.30,49.888 C160.812,49.888 160.593,49.919 160.374,49.951 C160.156,49.982 159.937,50.45 159.749,50.139 C159.562,50.232 159.406,50.327 159.312,50.483 C159.187,50.640 159.124,50.827 159.124,51.46 C159.124,51.296 159.218,51.516 159.406,51.671 C159.593,51.828 159.812,51.985 160.93,52.79 C160.374,52.203 160.686,52.266 161.30,52.360 C161.374,52.423 161.718,52.516 162.61,52.580 C162.436,52.673 162.780,52.767 163.155,52.861 C163.499,52.986 163.812,53.143 164.93,53.330 C164.374,53.518 164.593,53.768 164.749,54.50 C164.905,54.331 164.999,54.707 164.999,55.113 C164.999,55.645 164.874,56.115 164.656,56.458 C164.437,56.802 164.124,57.116 163.780,57.334 C163.405,57.554 162.999,57.711 162.562,57.804 C162.93,57.898 161.655,57.929 161.218,57.929 C160.718,57.929 160.249,57.866 159.812,57.773 C159.374,57.678 158.968,57.491 158.624,57.272 C158.280,57.22 157.999,56.709 157.780,56.334 C157.562,55.958 157.468,55.489 157.437,54.926 L158.905,54.926 C158.936,55.270 158.999,55.520 159.155,55.771 Z"/>
<path fill-rule="evenodd"  fill="rgb(255, 255, 255)"
 d="M167.374,53.706 C167.374,54.112 167.405,54.456 167.499,54.831 C167.593,55.176 167.780,55.489 167.999,55.771 C168.218,56.52 168.530,56.271 168.874,56.427 C169.218,56.584 169.656,56.678 170.124,56.678 C170.749,56.678 171.249,56.521 171.655,56.239 C172.62,55.958 172.311,55.520 172.437,54.926 L173.874,54.926 C173.718,55.926 173.280,56.678 172.624,57.179 C171.968,57.678 171.124,57.929 170.93,57.929 C169.374,57.929 168.749,57.804 168.249,57.585 C167.718,57.366 167.280,57.22 166.937,56.615 C166.593,56.208 166.311,55.708 166.124,55.113 C165.937,54.551 165.843,53.893 165.812,53.236 C165.812,52.547 165.905,51.922 166.124,51.359 C166.343,50.795 166.624,50.296 166.999,49.888 C167.374,49.482 167.812,49.138 168.343,48.919 C168.843,48.700 169.405,48.575 170.31,48.575 C170.812,48.575 171.499,48.731 171.999,49.75 C172.531,49.387 172.937,49.826 173.249,50.327 C173.562,50.827 173.780,51.390 173.906,51.985 C174.30,52.580 174.62,53.143 174.62,53.706 L167.374,53.706 ZM172.280,51.453 C172.156,51.140 171.968,50.859 171.749,50.640 C171.530,50.420 171.249,50.232 170.968,50.108 C170.655,49.982 170.312,49.919 169.968,49.919 C169.593,49.919 169.249,49.982 168.937,50.108 C168.624,50.232 168.374,50.420 168.155,50.640 C167.937,50.859 167.749,51.140 167.624,51.453 C167.499,51.766 167.437,52.79 167.405,52.423 L172.531,52.423 C172.468,52.79 172.405,51.766 172.280,51.453 Z"/>
<path fill-rule="evenodd"  fill="rgb(255, 255, 255)"
 d="M183.530,57.711 C183.280,57.866 182.936,57.929 182.468,57.929 C182.93,57.929 181.780,57.835 181.562,57.616 C181.343,57.397 181.218,57.53 181.218,56.584 C180.811,57.84 180.343,57.429 179.812,57.616 C179.280,57.835 178.686,57.929 178.62,57.929 C177.655,57.929 177.280,57.898 176.905,57.804 C176.530,57.711 176.218,57.554 175.968,57.366 C175.718,57.179 175.499,56.928 175.343,56.584 C175.186,56.271 175.124,55.895 175.124,55.427 C175.124,54.926 175.218,54.518 175.374,54.175 C175.562,53.862 175.780,53.580 176.62,53.392 C176.343,53.205 176.655,53.48 177.31,52.923 C177.406,52.829 177.749,52.735 178.156,52.673 C178.562,52.580 178.937,52.547 179.312,52.485 C179.687,52.454 179.999,52.391 180.281,52.298 C180.562,52.235 180.780,52.110 180.937,51.985 C181.93,51.828 181.186,51.640 181.186,51.359 C181.186,51.46 181.124,50.764 180.999,50.577 C180.874,50.389 180.718,50.232 180.530,50.139 C180.343,50.45 180.124,49.951 179.906,49.919 C179.655,49.888 179.437,49.857 179.218,49.857 C178.593,49.857 178.62,49.982 177.655,50.201 C177.249,50.452 177.31,50.890 176.968,51.547 L175.499,51.547 C175.530,50.984 175.624,50.514 175.843,50.139 C176.62,49.764 176.312,49.451 176.687,49.200 C177.31,48.950 177.437,48.793 177.874,48.700 C178.311,48.606 178.781,48.543 179.312,48.543 C179.718,48.543 180.124,48.575 180.499,48.637 C180.906,48.700 181.249,48.824 181.593,48.981 C181.905,49.169 182.186,49.420 182.374,49.732 C182.561,50.45 182.655,50.483 182.655,50.984 L182.655,55.583 C182.655,55.926 182.687,56.177 182.718,56.334 C182.749,56.490 182.905,56.584 183.124,56.584 C183.249,56.584 183.406,56.553 183.562,56.521 L183.562,57.711 L183.530,57.711 ZM181.93,53.143 L181.93,53.160 C180.909,53.279 180.673,53.395 180.405,53.456 C180.93,53.518 179.780,53.580 179.468,53.611 C179.156,53.643 178.812,53.706 178.468,53.737 C178.124,53.799 177.843,53.862 177.562,53.988 C177.311,54.112 177.93,54.269 176.905,54.487 C176.749,54.707 176.655,54.988 176.655,55.363 C176.655,55.614 176.718,55.802 176.812,55.990 C176.905,56.177 177.31,56.303 177.187,56.396 C177.343,56.490 177.530,56.584 177.718,56.615 C177.937,56.647 178.156,56.678 178.374,56.678 C178.843,56.678 179.280,56.615 179.624,56.490 C179.968,56.365 180.249,56.177 180.468,55.990 C180.687,55.802 180.843,55.583 180.937,55.332 C181.31,55.82 181.93,54.863 181.93,54.675 L181.93,53.160 C181.102,53.154 181.115,53.149 181.124,53.143 L181.93,53.143 Z"/>
<path fill-rule="evenodd"  fill="rgb(255, 255, 255)"
 d="M186.30,55.771 C186.155,55.990 186.343,56.177 186.562,56.303 C186.780,56.427 187.31,56.521 187.312,56.584 C187.593,56.647 187.874,56.678 188.187,56.678 C188.406,56.678 188.655,56.647 188.905,56.615 C189.156,56.584 189.406,56.521 189.593,56.427 C189.812,56.334 189.968,56.208 190.124,56.21 C190.249,55.833 190.343,55.614 190.343,55.332 C190.343,54.957 190.187,54.675 189.905,54.456 C189.624,54.269 189.249,54.112 188.812,53.988 C188.374,53.862 187.905,53.768 187.405,53.674 C186.906,53.580 186.436,53.424 185.999,53.267 C185.562,53.79 185.218,52.829 184.906,52.516 C184.624,52.203 184.468,51.735 184.468,51.172 C184.468,50.733 184.562,50.327 184.780,50.14 C184.968,49.700 185.249,49.419 185.562,49.232 C185.874,49.44 186.250,48.888 186.624,48.793 C187.31,48.700 187.405,48.637 187.812,48.637 C188.312,48.637 188.781,48.668 189.218,48.762 C189.655,48.857 190.30,49.12 190.343,49.200 C190.655,49.419 190.937,49.700 191.124,50.76 C191.312,50.452 191.436,50.890 191.468,51.422 L189.999,51.422 C189.968,51.140 189.905,50.890 189.781,50.702 C189.655,50.514 189.499,50.358 189.280,50.232 C189.93,50.108 188.874,50.45 188.624,49.982 C188.374,49.919 188.155,49.888 187.905,49.888 C187.687,49.888 187.468,49.919 187.249,49.951 C187.31,49.982 186.811,50.45 186.624,50.139 C186.436,50.232 186.281,50.327 186.187,50.483 C186.62,50.640 185.999,50.827 185.999,51.46 C185.999,51.296 186.93,51.516 186.281,51.671 C186.468,51.828 186.687,51.985 186.968,52.79 C187.249,52.203 187.562,52.266 187.905,52.360 C188.249,52.423 188.593,52.516 188.936,52.580 C189.311,52.673 189.655,52.767 190.30,52.861 C190.374,52.986 190.686,53.143 190.968,53.330 C191.249,53.518 191.468,53.768 191.624,54.50 C191.780,54.331 191.874,54.707 191.874,55.113 C191.874,55.645 191.749,56.115 191.531,56.458 C191.312,56.802 190.999,57.116 190.655,57.334 C190.280,57.554 189.874,57.711 189.437,57.804 C188.968,57.898 188.530,57.929 188.93,57.929 C187.593,57.929 187.124,57.866 186.687,57.773 C186.249,57.678 185.843,57.491 185.499,57.272 C185.156,57.22 184.874,56.709 184.655,56.334 C184.437,55.958 184.343,55.489 184.311,54.926 L185.780,54.926 C185.843,55.270 185.906,55.520 186.30,55.771 Z"/>
<path fill-rule="evenodd"  fill="rgb(255, 255, 255)"
 d="M194.280,53.706 C194.280,54.112 194.312,54.456 194.406,54.831 C194.499,55.176 194.687,55.489 194.905,55.771 C195.124,56.52 195.437,56.271 195.781,56.427 C196.124,56.584 196.562,56.678 197.30,56.678 C197.655,56.678 198.155,56.521 198.562,56.239 C198.968,55.958 199.218,55.520 199.343,54.926 L200.781,54.926 C200.624,55.926 200.187,56.678 199.530,57.179 C198.874,57.678 198.30,57.929 196.999,57.929 C196.280,57.929 195.655,57.804 195.156,57.585 C194.624,57.366 194.187,57.22 193.843,56.615 C193.499,56.208 193.218,55.708 193.31,55.113 C192.843,54.551 192.749,53.893 192.718,53.236 C192.718,52.547 192.811,51.922 193.31,51.359 C193.249,50.795 193.530,50.296 193.905,49.888 C194.280,49.482 194.718,49.138 195.249,48.919 C195.749,48.700 196.312,48.575 196.937,48.575 C197.718,48.575 198.405,48.731 198.905,49.75 C199.437,49.387 199.843,49.826 200.155,50.327 C200.468,50.827 200.687,51.390 200.812,51.985 C200.936,52.580 200.968,53.143 200.968,53.706 L194.280,53.706 ZM199.155,51.453 C199.31,51.140 198.843,50.859 198.624,50.640 C198.405,50.420 198.124,50.232 197.843,50.108 C197.531,49.982 197.187,49.919 196.843,49.919 C196.468,49.919 196.124,49.982 195.812,50.108 C195.499,50.232 195.249,50.420 195.31,50.640 C194.812,50.859 194.624,51.140 194.499,51.453 C194.374,51.766 194.312,52.79 194.280,52.423 L199.405,52.423 C199.374,52.79 199.312,51.766 199.155,51.453 Z"/>
</svg>