<svg 
 xmlns="http://www.w3.org/2000/svg"
 xmlns:xlink="http://www.w3.org/1999/xlink"
 width="112.5px" height="212.5px">
<path fill-rule="evenodd"  fill="rgb(223, 222, 237)"
 d="M57.999,61.999 C75.118,61.999 88.999,48.119 88.999,30.998 C88.999,13.880 75.118,0.0 57.999,0.0 C40.880,0.0 26.999,13.880 26.999,30.998 C26.999,48.119 40.880,61.999 57.999,61.999 Z"/>
<path fill-rule="evenodd"  fill="rgb(35, 31, 32)"
 d="M74.211,30.250 C75.278,40.518 70.775,42.979 61.416,44.440 C58.261,44.926 54.789,44.702 51.672,43.925 C43.192,41.819 41.86,38.833 41.760,31.785 L41.760,31.794 C41.741,24.335 43.791,21.583 51.91,19.776 C57.101,18.288 63.63,18.503 68.763,21.180 C72.451,22.912 74.632,25.626 74.211,29.932 C74.201,30.35 74.201,30.147 74.211,30.250 ZM63.390,23.342 C57.662,21.864 52.168,21.667 47.170,24.943 C44.325,26.806 44.390,28.669 47.310,30.961 C52.608,28.453 57.999,25.898 63.390,23.352 L63.390,23.342 ZM68.221,24.709 C62.758,27.290 57.155,29.929 50.740,32.958 C50.736,32.957 50.731,32.956 50.726,32.955 L50.726,32.964 C50.731,32.962 50.735,32.960 50.740,32.958 C57.446,34.415 63.94,34.506 68.389,31.402 C71.712,29.445 71.655,27.264 68.221,24.709 ZM70.438,34.200 C62.99,38.253 53.759,38.244 45.429,34.163 C45.139,34.396 44.848,34.621 44.558,34.856 C45.410,36.128 46.0,37.729 47.151,38.618 C52.196,42.530 63.830,42.521 68.810,38.581 C69.952,37.682 70.457,35.988 71.253,34.659 C70.982,34.499 70.710,34.350 70.438,34.200 Z"/>
<path fill-rule="evenodd"  stroke="rgb(40, 60, 140)" stroke-width="1px" stroke-linecap="butt" stroke-linejoin="miter" fill="none"
 d="M56.999,61.999 L56.999,101.999 L56.999,61.999 Z"/>
<path fill-rule="evenodd"  fill="rgb(223, 222, 237)"
 d="M55.670,211.999 C86.412,211.999 111.341,187.371 111.341,156.999 C111.341,126.628 86.412,101.999 55.670,101.999 C24.928,101.999 0.0,126.628 0.0,156.999 C0.0,187.371 24.928,211.999 55.670,211.999 Z"/>
<path fill-rule="evenodd"  fill="rgb(35, 31, 32)"
 d="M61.629,137.640 C61.587,140.375 58.998,142.557 56.325,142.308 C53.931,142.84 51.732,139.822 51.829,137.601 C51.899,136.10 52.776,134.787 54.98,133.867 C55.768,132.697 57.620,132.710 59.290,133.867 C60.696,134.853 61.545,136.142 61.629,137.640 Z"/>
<path fill-rule="evenodd"  fill="rgb(35, 31, 32)"
 d="M61.704,165.537 C61.704,170.211 61.704,174.883 61.704,179.557 C61.704,179.836 61.677,180.128 61.624,180.407 C61.385,181.483 60.614,182.106 59.497,182.147 C59.204,182.147 58.898,182.147 58.606,182.92 C57.396,181.855 56.757,181.84 56.757,179.849 C56.757,175.627 56.757,171.419 56.757,167.196 C56.757,166.825 56.717,166.453 56.704,166.95 C56.704,166.28 56.704,165.962 56.664,165.909 C56.611,165.829 56.531,165.723 56.451,165.723 C56.385,165.723 56.279,165.842 56.265,165.922 C56.225,166.122 56.199,166.334 56.199,166.546 C56.199,170.463 56.199,174.366 56.199,178.282 L56.199,179.743 C56.199,181.138 55.42,182.292 53.645,182.252 C53.379,182.252 53.87,182.186 52.861,182.39 C51.943,181.483 51.358,180.725 51.358,179.571 C51.358,170.714 51.358,161.859 51.345,152.991 C51.345,152.354 51.345,151.729 51.305,151.92 C51.305,150.973 51.159,150.853 51.79,150.734 C50.999,150.853 50.879,150.973 50.853,151.106 C50.813,151.371 50.813,151.649 50.813,151.929 C50.813,153.867 50.813,155.806 50.786,157.730 C50.786,158.368 50.680,159.18 50.520,159.629 C50.334,160.386 49.869,160.691 49.137,160.691 C48.592,160.691 48.220,160.399 47.994,159.934 C47.661,159.283 47.568,158.580 47.555,157.877 C47.528,156.243 47.541,154.597 47.528,152.964 C47.515,150.787 47.501,148.609 47.448,146.432 C47.435,145.503 47.622,144.653 48.220,143.923 C48.778,143.245 49.510,142.887 50.374,142.887 C54.443,142.887 58.526,142.874 62.609,142.887 C64.151,142.887 65.415,144.82 65.521,145.635 C65.574,146.485 65.574,147.348 65.574,148.197 C65.574,151.543 65.587,154.876 65.574,158.222 C65.574,158.752 65.494,159.297 65.361,159.814 C65.149,160.625 64.603,160.997 63.859,160.930 C62.941,160.850 62.489,160.465 62.356,159.589 C62.316,159.283 62.276,158.978 62.276,158.674 C62.276,156.337 62.276,154.0 62.276,151.663 C62.276,151.451 62.289,151.238 62.249,151.26 C62.236,150.932 62.90,150.800 62.10,150.800 C61.904,150.800 61.784,150.906 61.717,150.999 C61.664,151.92 61.691,151.225 61.691,151.345 C61.691,154.39 61.691,156.735 61.691,159.430 C61.691,161.461 61.691,163.493 61.691,165.524 L61.704,165.537 Z"/>
</svg>