<svg 
 xmlns="http://www.w3.org/2000/svg"
 xmlns:xlink="http://www.w3.org/1999/xlink"
 width="111.5px" height="212.5px">
<path fill-rule="evenodd"  fill="rgb(223, 222, 237)"
 d="M55.499,211.661 C86.147,211.661 110.999,187.109 110.999,156.831 C110.999,126.552 86.147,101.999 55.499,101.999 C24.851,101.999 0.0,126.552 0.0,156.831 C0.0,187.109 24.851,211.661 55.499,211.661 Z"/>
<path fill-rule="evenodd"  fill="rgb(35, 31, 32)"
 d="M64.456,169.537 C64.456,174.211 64.456,178.883 64.456,183.557 C64.456,183.836 64.429,184.128 64.376,184.407 C64.136,185.483 63.365,186.106 62.248,186.147 C61.956,186.147 61.650,186.147 61.357,186.92 C60.147,185.855 59.509,185.84 59.509,183.849 C59.509,179.627 59.509,175.419 59.509,171.196 C59.509,170.825 59.469,170.453 59.442,170.95 C59.442,170.28 59.442,169.962 59.402,169.909 C59.349,169.829 59.270,169.723 59.190,169.723 C59.123,169.723 59.17,169.842 59.4,169.922 C58.964,170.122 58.937,170.334 58.937,170.546 C58.937,174.463 58.937,178.366 58.937,182.282 L58.937,183.743 C58.937,185.138 57.780,186.292 56.384,186.252 C56.118,186.252 55.825,186.186 55.599,186.39 C54.695,185.483 54.96,184.725 54.96,183.571 C54.96,174.714 54.96,165.859 54.83,156.991 C54.83,156.354 54.83,155.729 54.43,155.92 C54.43,154.973 53.897,154.853 53.817,154.734 C53.737,154.853 53.618,154.973 53.591,155.106 C53.551,155.371 53.551,155.649 53.551,155.929 C53.551,157.867 53.551,159.806 53.524,161.730 C53.524,162.368 53.405,163.18 53.258,163.629 C53.72,164.386 52.607,164.691 51.875,164.691 C51.330,164.691 50.971,164.399 50.732,163.934 C50.400,163.283 50.306,162.580 50.293,161.877 C50.266,160.243 50.280,158.597 50.266,156.964 C50.253,154.787 50.240,152.609 50.186,150.432 C50.173,149.503 50.360,148.653 50.971,147.923 C51.530,147.245 52.261,146.887 53.126,146.887 C57.208,146.887 61.278,146.874 65.360,146.887 C66.902,146.887 68.166,148.82 68.272,149.635 C68.325,150.485 68.325,151.348 68.325,152.197 C68.325,155.543 68.339,158.876 68.325,162.222 C68.325,162.752 68.246,163.297 68.113,163.814 C67.900,164.625 67.355,164.997 66.610,164.930 C65.693,164.850 65.240,164.465 65.108,163.589 C65.68,163.283 65.28,162.978 65.28,162.674 C65.28,160.337 65.28,158.0 65.28,155.663 C65.28,155.451 65.41,155.238 65.1,155.26 C64.987,154.932 64.842,154.800 64.762,154.800 C64.655,154.800 64.536,154.906 64.469,154.999 C64.416,155.92 64.442,155.225 64.442,155.345 C64.442,158.39 64.442,160.735 64.442,163.430 C64.442,165.461 64.442,167.493 64.442,169.524 L64.456,169.537 Z"/>
<path fill-rule="evenodd"  fill="rgb(35, 31, 32)"
 d="M64.190,141.457 C64.150,144.218 61.677,146.422 59.123,146.171 C56.836,145.944 54.735,143.661 54.828,141.417 C54.894,139.810 55.732,138.576 56.996,137.647 C58.591,136.466 60.360,136.478 61.956,137.647 C63.299,138.643 64.110,139.943 64.190,141.457 Z"/>
<path fill-rule="evenodd"  fill="rgb(35, 31, 32)"
 d="M85.704,169.537 C85.704,174.211 85.704,178.883 85.704,183.557 C85.704,183.836 85.677,184.128 85.624,184.407 C85.385,185.483 84.614,186.106 83.497,186.147 C83.204,186.147 82.898,186.147 82.606,186.92 C81.396,185.855 80.757,185.84 80.757,183.849 C80.757,179.627 80.757,175.419 80.757,171.196 C80.757,170.825 80.717,170.453 80.704,170.95 C80.704,170.28 80.704,169.962 80.664,169.909 C80.611,169.829 80.531,169.723 80.451,169.723 C80.385,169.723 80.279,169.842 80.265,169.922 C80.225,170.122 80.199,170.334 80.199,170.546 C80.199,174.463 80.199,178.366 80.199,182.282 L80.199,183.743 C80.199,185.138 79.42,186.292 77.645,186.252 C77.379,186.252 77.87,186.186 76.861,186.39 C75.943,185.483 75.358,184.725 75.358,183.571 C75.358,174.714 75.358,165.859 75.345,156.991 C75.345,156.354 75.345,155.729 75.305,155.92 C75.305,154.973 75.159,154.853 75.79,154.734 C74.999,154.853 74.879,154.973 74.853,155.106 C74.813,155.371 74.813,155.649 74.813,155.929 C74.813,157.867 74.813,159.806 74.786,161.730 C74.786,162.368 74.680,163.18 74.520,163.629 C74.334,164.386 73.869,164.691 73.137,164.691 C72.592,164.691 72.220,164.399 71.994,163.934 C71.661,163.283 71.568,162.580 71.555,161.877 C71.528,160.243 71.541,158.597 71.528,156.964 C71.515,154.787 71.501,152.609 71.448,150.432 C71.435,149.503 71.622,148.653 72.220,147.923 C72.778,147.245 73.510,146.887 74.374,146.887 C78.443,146.887 82.526,146.874 86.609,146.887 C88.151,146.887 89.415,148.82 89.521,149.635 C89.574,150.485 89.574,151.348 89.574,152.197 C89.574,155.543 89.587,158.876 89.574,162.222 C89.574,162.752 89.494,163.297 89.361,163.814 C89.149,164.625 88.603,164.997 87.859,164.930 C86.941,164.850 86.489,164.465 86.356,163.589 C86.316,163.283 86.276,162.978 86.276,162.674 C86.276,160.337 86.276,158.0 86.276,155.663 C86.276,155.451 86.289,155.238 86.249,155.26 C86.236,154.932 86.90,154.800 86.10,154.800 C85.904,154.800 85.784,154.906 85.717,154.999 C85.664,155.92 85.691,155.225 85.691,155.345 C85.691,158.39 85.691,160.735 85.691,163.430 C85.691,165.461 85.691,167.493 85.691,169.524 L85.704,169.537 Z"/>
<path fill-rule="evenodd"  fill="rgb(35, 31, 32)"
 d="M85.439,141.457 C85.399,144.218 82.925,146.422 80.372,146.171 C78.84,145.944 75.984,143.661 76.77,141.417 C76.143,139.810 76.967,138.576 78.244,137.647 C79.840,136.466 81.609,136.478 83.205,137.647 C84.547,138.643 85.359,139.943 85.439,141.457 Z"/>
<path fill-rule="evenodd"  fill="rgb(35, 31, 32)"
 d="M42.340,169.537 C42.340,174.211 42.340,178.883 42.340,183.557 C42.340,183.836 42.313,184.128 42.260,184.407 C42.20,185.483 41.249,186.106 40.132,186.147 C39.839,186.147 39.534,186.147 39.254,186.92 C38.44,185.855 37.406,185.84 37.406,183.849 C37.406,179.627 37.406,175.419 37.406,171.196 C37.406,170.825 37.366,170.453 37.339,170.95 C37.339,170.28 37.339,169.962 37.299,169.909 C37.246,169.829 37.154,169.723 37.87,169.723 C37.20,169.723 36.914,169.842 36.901,169.922 C36.861,170.122 36.834,170.334 36.834,170.546 C36.834,174.463 36.834,178.366 36.834,182.282 L36.834,183.743 C36.834,185.138 35.677,186.292 34.281,186.252 C34.15,186.252 33.722,186.186 33.496,186.39 C32.592,185.483 31.993,184.725 31.993,183.571 C31.993,174.714 31.993,165.859 31.980,156.991 C31.980,156.354 31.980,155.729 31.940,155.92 C31.940,154.973 31.794,154.853 31.714,154.734 C31.635,154.853 31.515,154.973 31.488,155.106 C31.448,155.371 31.448,155.649 31.448,155.929 C31.448,157.867 31.448,159.806 31.421,161.730 C31.421,162.368 31.302,163.18 31.155,163.629 C30.970,164.386 30.504,164.691 29.773,164.691 C29.227,164.691 28.855,164.399 28.629,163.934 C28.297,163.283 28.204,162.580 28.190,161.877 C28.164,160.243 28.190,158.597 28.164,156.964 C28.150,154.787 28.137,152.609 28.84,150.432 C28.70,149.503 28.257,148.653 28.868,147.923 C29.427,147.245 30.159,146.887 31.23,146.887 C35.105,146.887 39.175,146.874 43.257,146.887 C44.800,146.887 46.63,148.82 46.169,149.635 C46.223,150.485 46.223,151.348 46.223,152.197 C46.223,155.543 46.236,158.876 46.223,162.222 C46.223,162.752 46.143,163.297 46.10,163.814 C45.798,164.625 45.252,164.997 44.507,164.930 C43.590,164.850 43.137,164.465 43.5,163.589 C42.965,163.283 42.925,162.978 42.925,162.674 C42.925,160.337 42.925,158.0 42.925,155.663 C42.925,155.451 42.938,155.238 42.898,155.26 C42.885,154.932 42.739,154.800 42.659,154.800 C42.552,154.800 42.433,154.906 42.366,154.999 C42.313,155.92 42.340,155.225 42.340,155.345 C42.340,158.39 42.340,160.735 42.340,163.430 C42.340,165.461 42.340,167.493 42.340,169.524 L42.340,169.537 Z"/>
<path fill-rule="evenodd"  fill="rgb(35, 31, 32)"
 d="M42.61,141.457 C42.21,144.218 39.548,146.422 36.994,146.171 C34.707,145.944 32.606,143.661 32.699,141.417 C32.765,139.810 33.603,138.576 34.867,137.647 C36.463,136.466 38.231,136.478 39.827,137.647 C41.170,138.643 41.981,139.943 42.61,141.457 Z"/>
<path fill-rule="evenodd"  fill="rgb(223, 222, 237)"
 d="M56.999,61.999 C74.118,61.999 87.999,48.118 87.999,30.999 C87.999,13.879 74.118,0.0 56.999,0.0 C39.880,0.0 25.999,13.879 25.999,30.999 C25.999,48.118 39.880,61.999 56.999,61.999 Z"/>
<path fill-rule="evenodd"  fill="rgb(35, 31, 32)"
 d="M73.211,30.250 C74.278,40.518 69.775,42.980 60.416,44.440 C57.261,44.926 53.789,44.702 50.672,43.926 C42.192,41.819 40.86,38.833 40.760,31.785 L40.760,31.794 C40.741,24.335 42.791,21.583 50.91,19.776 C56.101,18.288 62.63,18.503 67.763,21.181 C71.451,22.912 73.632,25.626 73.211,29.932 C73.201,30.35 73.201,30.147 73.211,30.250 ZM62.390,23.342 C56.662,21.864 51.168,21.667 46.170,24.943 C43.325,26.806 43.390,28.669 46.310,30.962 C51.608,28.454 56.999,25.897 62.390,23.352 L62.390,23.342 ZM67.221,24.709 C61.758,27.291 56.155,29.928 49.740,32.958 C49.736,32.957 49.731,32.956 49.726,32.955 L49.726,32.964 C49.731,32.962 49.735,32.960 49.740,32.958 C56.446,34.416 62.94,34.507 67.389,31.401 C70.712,29.445 70.655,27.265 67.221,24.709 ZM69.438,34.200 C61.99,38.253 52.759,38.244 44.429,34.162 C44.139,34.397 43.848,34.622 43.558,34.855 C44.410,36.128 45.0,37.728 46.151,38.618 C51.196,42.530 62.830,42.521 67.810,38.580 C68.952,37.682 69.457,35.988 70.253,34.659 C69.982,34.500 69.710,34.350 69.438,34.200 Z"/>
<path fill-rule="evenodd"  stroke="rgb(40, 60, 140)" stroke-width="1px" stroke-linecap="butt" stroke-linejoin="miter" fill="none"
 d="M56.999,61.999 L56.999,101.999 L56.999,61.999 Z"/>
</svg>