<svg height="20" viewBox="0 0 20 20" width="20" xmlns="http://www.w3.org/2000/svg"><path d="m19.633 9.114-8.747-8.747a1.253 1.253 0 0 0 -1.772 0l-8.747 8.747a1.253 1.253 0 0 0 0 1.772l8.747 8.747a1.253 1.253 0 0 0 1.772 0l8.747-8.747a1.253 1.253 0 0 0 0-1.772zm-3.944.486-3.289 3.041a.313.313 0 0 1 -.525-.23v-2.1h-3.75v2.5a.312.312 0 0 1 -.312.312h-1.251a.312.312 0 0 1 -.312-.312v-3.124a1.25 1.25 0 0 1 1.25-1.25h4.375v-2.1a.313.313 0 0 1 .525-.23l3.289 3.036a.313.313 0 0 1 0 .459z" fill="#00467f"/></svg>