<svg 
 xmlns="http://www.w3.org/2000/svg"
 xmlns:xlink="http://www.w3.org/1999/xlink"
 width="299px" height="92px">
<defs>
<linearGradient id="PSgrad_0" x1="0%" x2="77.363%" y1="63.364%" y2="0%">
  <stop offset="14%" stop-color="rgb(100,203,232)" stop-opacity="1" />
  <stop offset="24%" stop-color="rgb(97,197,228)" stop-opacity="1" />
  <stop offset="37%" stop-color="rgb(91,181,218)" stop-opacity="1" />
  <stop offset="51%" stop-color="rgb(80,155,201)" stop-opacity="1" />
  <stop offset="67%" stop-color="rgb(66,118,178)" stop-opacity="1" />
  <stop offset="83%" stop-color="rgb(47,71,148)" stop-opacity="1" />
  <stop offset="89%" stop-color="rgb(40,53,137)" stop-opacity="1" />
</linearGradient>

</defs>
<path fill-rule="evenodd"  fill="rgb(27, 30, 76)"
 d="M38.830,37.430 C42.907,37.116 46.957,40.949 46.914,45.307 C46.879,49.787 43.465,53.384 38.908,53.445 C34.421,53.507 31.174,49.804 30.903,46.188 C30.493,40.618 34.596,37.404 38.830,37.430 L38.830,37.430 Z"/>
<path fill-rule="evenodd"  fill="rgb(27, 30, 76)"
 d="M76.177,42.172 C74.361,36.714 71.348,31.711 67.315,27.502 C64.810,24.882 61.964,22.629 58.848,20.804 C55.277,18.699 52.230,17.774 47.603,17.389 C46.137,17.268 44.618,17.137 43.133,17.111 C35.469,16.988 27.856,19.887 22.767,24.890 C18.672,28.917 16.507,33.999 16.507,39.587 C16.507,40.216 16.534,40.844 16.586,41.465 C17.537,39.684 18.699,38.15 20.43,36.505 C20.314,36.199 20.602,35.903 20.890,35.605 L21.47,35.448 C21.283,35.213 21.536,34.968 21.789,34.741 L21.964,34.584 C22.583,34.25 23.221,33.492 23.876,33.12 L23.971,32.942 C24.295,32.706 24.583,32.496 24.879,32.304 L25.89,32.165 C25.403,31.955 25.726,31.755 26.49,31.562 L26.110,31.519 C26.477,31.300 26.843,31.100 27.219,30.898 L27.315,30.846 C27.673,30.662 27.987,30.506 28.310,30.357 C28.398,30.313 28.485,30.279 28.581,30.235 C28.886,30.95 29.201,29.964 29.524,29.833 L29.716,29.754 C30.100,29.607 30.493,29.458 30.885,29.327 L30.999,29.292 C31.383,29.169 31.715,29.64 32.55,28.969 C32.169,28.933 32.282,28.907 32.396,28.873 C32.693,28.794 32.998,28.715 33.313,28.646 L33.618,28.576 C34.20,28.489 34.430,28.410 34.840,28.340 L34.954,28.322 C35.338,28.261 35.704,28.209 36.71,28.165 L36.447,28.122 C36.752,28.87 37.57,28.69 37.363,28.43 L37.738,28.17 C38.559,27.973 39.380,27.973 40.200,28.17 L40.567,28.35 C40.846,28.52 41.125,28.69 41.396,28.96 C41.527,28.104 41.667,28.122 41.798,28.140 C42.77,28.174 42.356,28.209 42.645,28.244 L42.959,28.288 C43.343,28.348 43.718,28.419 44.94,28.489 L44.321,28.541 C44.627,28.602 44.923,28.672 45.212,28.751 C45.316,28.776 45.430,28.802 45.534,28.838 L45.595,28.855 C45.849,28.925 46.93,28.995 46.329,29.64 L46.390,29.82 C46.503,29.117 46.608,29.153 46.722,29.187 C46.983,29.274 47.254,29.361 47.525,29.458 L47.804,29.554 C48.145,29.685 48.485,29.816 48.817,29.956 L49.166,30.113 C49.393,30.208 49.620,30.313 49.838,30.418 C49.969,30.480 50.109,30.549 50.248,30.619 C50.458,30.724 50.659,30.829 50.860,30.934 L50.947,30.977 C51.52,31.29 51.156,31.82 51.253,31.144 C51.488,31.274 51.724,31.414 51.960,31.545 C52.108,31.632 52.256,31.729 52.405,31.816 C52.632,31.955 52.868,32.104 53.86,32.252 C53.208,32.331 53.322,32.409 53.435,32.496 L53.496,32.540 C53.662,32.653 53.819,32.768 53.985,32.889 C54.125,32.994 54.273,33.99 54.413,33.212 C54.561,33.327 54.710,33.448 54.867,33.571 L54.936,33.623 C55.50,33.719 55.163,33.807 55.277,33.902 C55.460,34.51 55.635,34.208 55.818,34.366 C56.28,34.549 56.237,34.741 56.438,34.933 L56.490,34.985 C56.595,35.90 56.709,35.195 56.814,35.300 C56.953,35.439 57.93,35.579 57.232,35.728 C57.346,35.841 57.451,35.954 57.564,36.77 C57.704,36.226 57.843,36.383 57.983,36.531 C58.62,36.627 58.140,36.714 58.219,36.811 L58.271,36.872 C58.760,37.439 59.240,38.42 59.677,38.661 L59.720,38.723 C59.781,38.810 59.842,38.897 59.904,38.976 C60.35,39.159 60.157,39.351 60.279,39.544 C60.349,39.657 60.419,39.762 60.489,39.875 C60.611,40.67 60.733,40.269 60.855,40.469 L60.995,40.714 C61.161,40.993 61.318,41.282 61.467,41.560 L61.493,41.473 L61.659,41.927 C61.685,41.971 61.702,42.14 61.728,42.58 L61.815,42.234 C61.920,42.452 62.25,42.670 62.130,42.888 L62.278,43.211 C62.374,43.430 62.470,43.648 62.557,43.874 L62.689,44.198 C62.776,44.433 62.872,44.661 62.951,44.897 C63.579,46.652 64.7,48.459 64.234,50.302 C64.469,51.690 64.583,53.96 64.583,54.511 C64.583,59.462 63.125,64.369 60.480,68.325 C55.591,75.634 48.502,80.27 39.974,81.31 C38.743,81.170 37.503,81.249 36.254,81.249 C27.45,81.249 17.520,77.390 10.134,70.534 C5.735,66.396 2.330,61.436 0.78,55.934 C1.29,70.893 10.458,83.476 25.168,89.161 C40.733,95.169 57.110,91.510 67.900,79.608 C74.797,72.1 78.289,61.968 77.730,51.367 C77.565,48.206 77.32,45.123 76.177,42.172 L76.177,42.172 Z"/>
<path fill-rule="evenodd"  fill="url(#PSgrad_0)"
 d="M1.466,50.275 C3.255,55.960 6.346,61.183 10.519,65.539 C13.24,68.160 15.870,70.413 18.987,72.237 C22.557,74.343 25.604,75.267 30.231,75.652 C31.715,75.774 33.234,75.905 34.701,75.931 C42.365,76.71 49.978,73.155 55.67,68.151 C59.162,64.125 61.327,59.43 61.327,53.454 C61.327,52.825 61.300,52.188 61.248,51.568 C61.248,51.542 61.248,51.507 61.248,51.481 C60.288,53.279 59.118,54.974 57.756,56.493 C57.486,56.799 57.197,57.96 56.909,57.393 L56.761,57.541 C56.516,57.786 56.272,58.22 56.19,58.257 L55.844,58.423 C55.233,58.973 54.596,59.505 53.942,59.995 L53.801,60.100 C53.514,60.309 53.226,60.510 52.937,60.711 L52.728,60.851 C52.413,61.60 52.91,61.260 51.767,61.453 L51.706,61.496 C51.340,61.715 50.973,61.916 50.598,62.117 L50.501,62.169 C50.144,62.353 49.829,62.509 49.507,62.658 L49.236,62.781 C48.930,62.920 48.616,63.51 48.293,63.182 L48.101,63.261 C47.717,63.409 47.324,63.558 46.931,63.689 L46.809,63.732 C46.442,63.854 46.111,63.959 45.770,64.56 C45.656,64.90 45.543,64.117 45.430,64.151 C45.133,64.230 44.827,64.308 44.513,64.379 L44.207,64.448 C43.806,64.536 43.396,64.615 42.985,64.684 L42.880,64.702 C42.488,64.762 42.121,64.815 41.754,64.859 C41.649,64.867 41.536,64.885 41.431,64.894 L41.370,64.894 C41.64,64.928 40.759,64.954 40.454,64.972 L40.366,64.972 C40.270,64.981 40.174,64.990 40.69,64.998 C39.266,65.42 38.429,65.42 37.616,64.998 L37.250,64.972 C36.970,64.954 36.700,64.938 36.421,64.911 C36.289,64.902 36.158,64.885 36.19,64.867 C35.740,64.833 35.460,64.797 35.172,64.762 L34.858,64.719 C34.474,64.658 34.98,64.588 33.723,64.518 L33.487,64.466 C33.199,64.405 32.902,64.335 32.605,64.264 C32.475,64.230 32.344,64.195 32.212,64.161 C31.977,64.99 31.724,64.30 31.488,63.951 L31.418,63.933 C31.305,63.898 31.200,63.863 31.87,63.828 C30.816,63.741 30.554,63.653 30.283,63.558 L30.4,63.461 C29.664,63.330 29.323,63.199 28.983,63.60 C28.904,63.25 28.825,62.989 28.747,62.955 L28.633,62.902 C28.407,62.798 28.179,62.702 27.961,62.597 C27.822,62.535 27.691,62.466 27.551,62.396 C27.350,62.291 27.141,62.186 26.939,62.81 L26.852,62.29 C26.748,61.977 26.643,61.924 26.547,61.863 C26.311,61.732 26.75,61.593 25.840,61.462 C25.692,61.375 25.543,61.278 25.394,61.191 C25.159,61.42 24.932,60.903 24.705,60.746 C24.583,60.667 24.469,60.588 24.356,60.501 L24.295,60.457 C24.128,60.344 23.971,60.231 23.806,60.108 C23.657,60.3 23.517,59.898 23.378,59.785 C23.230,59.672 23.73,59.549 22.924,59.427 L22.828,59.349 C22.723,59.261 22.610,59.174 22.505,59.87 C22.322,58.938 22.147,58.781 21.972,58.624 C21.763,58.440 21.553,58.248 21.352,58.56 L21.300,58.4 C21.195,57.899 21.82,57.794 20.977,57.689 C20.837,57.550 20.698,57.410 20.558,57.262 C20.445,57.148 20.340,57.34 20.227,56.912 C20.87,56.763 19.947,56.606 19.807,56.449 C19.729,56.362 19.650,56.266 19.563,56.170 L19.519,56.118 C19.22,55.541 18.550,54.939 18.114,54.328 L18.70,54.266 C18.9,54.179 17.948,54.92 17.887,54.13 C17.756,53.830 17.634,53.638 17.511,53.454 C17.441,53.341 17.372,53.236 17.302,53.122 C17.180,52.930 17.58,52.730 16.935,52.529 L16.795,52.284 C16.638,52.22 16.507,51.752 16.359,51.490 L16.333,51.568 L16.202,51.210 C16.158,51.123 16.106,51.36 16.53,50.939 L15.966,50.765 C15.861,50.546 15.757,50.328 15.652,50.110 C15.600,50.5 15.556,49.892 15.504,49.787 C15.407,49.569 15.311,49.350 15.224,49.131 L15.93,48.809 C14.997,48.573 14.910,48.346 14.832,48.110 C14.106,46.93 13.653,43.997 13.460,41.875 C13.312,40.775 13.242,39.666 13.242,38.540 C13.242,33.588 14.700,28.681 17.345,24.725 C22.234,17.416 29.323,13.23 37.852,12.19 C48.153,10.805 59.310,14.735 67.691,22.524 C72.64,26.585 75.443,31.509 77.704,36.968 C76.726,22.44 67.307,9.478 52.615,3.810 C37.58,-2.161 20.680,1.496 9.890,13.399 C2.985,21.5 0.506,31.39 0.61,41.639 C0.218,44.608 0.698,47.499 1.466,50.285 L1.466,50.275 Z"/>
<path fill-rule="evenodd"  fill="rgb(0, 46, 109)"
 d="M264.367,53.690 L276.842,53.690 C283.922,53.638 289.439,49.569 289.439,43.263 C289.439,38.802 285.345,35.649 279.671,35.667 L268.339,35.667 L269.395,28.715 L280.831,28.715 C290.932,28.715 297.8,33.902 297.8,42.163 C297.8,53.489 288.636,60.798 276.650,60.798 L262.927,60.798 L264.384,53.690 L264.367,53.690 Z"/>
<path fill-rule="evenodd"  fill="rgb(0, 46, 109)"
 d="M118.455,61.313 C108.416,61.313 102.383,55.462 102.383,46.975 C102.383,35.701 110.633,27.170 122.794,27.170 C132.834,27.170 138.866,33.20 138.866,41.508 C138.866,52.781 130.616,61.313 118.455,61.313 ZM122.139,33.676 C114.693,33.676 110.118,39.569 110.118,46.547 C110.118,51.455 113.322,54.799 119.119,54.799 C126.565,54.799 131.140,48.905 131.140,41.927 C131.140,37.20 127.936,33.676 122.139,33.676 Z"/>
<path fill-rule="evenodd"  fill="rgb(0, 46, 109)"
 d="M168.285,43.630 C168.285,44.574 168.189,45.613 167.954,46.696 L165.126,60.746 L157.775,60.746 L160.507,47.167 C160.647,46.555 160.699,45.944 160.699,45.421 C160.699,42.827 159.285,41.369 156.361,41.369 C152.633,41.369 150.40,43.447 149.150,47.874 L146.600,60.746 L139.250,60.746 L144.296,35.378 L151.271,35.378 L150.703,38.112 C153.17,35.990 155.933,35.3 159.50,35.3 C164.610,35.3 168.285,38.24 168.285,43.630 L168.285,43.630 Z"/>
<path fill-rule="evenodd"  fill="rgb(0, 46, 109)"
 d="M215.95,35.378 L201.93,60.746 L193.829,60.746 L190.905,44.949 L182.184,60.746 L175.16,60.746 L170.538,35.378 L177.234,35.378 L180.19,52.450 L189.543,35.378 L195.863,35.378 L198.735,52.450 L208.163,35.378 L215.95,35.378 L215.95,35.378 Z"/>
<path fill-rule="evenodd"  fill="rgb(0, 46, 109)"
 d="M238.386,60.746 L231.411,60.746 L231.883,58.248 C229.858,60.90 227.213,61.121 224.104,61.121 C218.212,61.121 213.166,56.973 213.166,49.761 C213.166,41.229 219.338,35.3 227.169,35.3 C230.844,35.3 233.769,36.182 235.419,38.819 L236.82,35.378 L243.433,35.378 L238.386,60.746 ZM228.16,41.80 C223.677,41.80 220.569,44.477 220.569,49.428 C220.569,52.869 222.690,55.44 226.365,55.44 C230.704,55.44 233.812,51.647 233.812,46.696 C233.812,43.255 231.691,41.80 228.16,41.80 Z"/>
<path fill-rule="evenodd"  fill="rgb(0, 46, 109)"
 d="M264.646,35.3 L263.328,41.796 C262.664,41.753 262.246,41.701 261.634,41.701 C257.295,41.701 254.519,43.727 253.577,48.494 L251.123,60.754 L243.773,60.754 L248.819,35.387 L255.794,35.387 L255.183,38.409 C257.444,35.954 260.560,35.12 264.655,35.12 L264.646,35.3 Z"/>
<path fill-rule="evenodd"  fill="rgb(38, 169, 225)"
 d="M279.51,44.766 C279.51,48.180 276.283,50.949 272.870,50.949 C269.456,50.949 266.689,48.180 266.689,44.766 C266.689,41.352 269.456,38.583 272.870,38.583 C276.283,38.583 279.51,41.352 279.51,44.766 Z"/>
<path fill-rule="evenodd"  fill="rgb(38, 169, 225)"
 d="M107.194,81.573 L106.565,78.935 L106.557,78.935 L100.925,78.935 L99.258,81.573 L97.634,81.573 L104.531,71.33 L106.24,71.33 L108.687,81.573 L107.194,81.573 ZM105.11,72.535 L101.702,77.730 L106.259,77.730 L105.11,72.535 Z"/>
<path fill-rule="evenodd"  fill="rgb(38, 169, 225)"
 d="M120.655,72.342 L119.913,76.19 L125.212,76.19 L124.959,77.311 L119.660,77.311 L118.813,81.573 L117.312,81.573 L119.416,71.33 L126.854,71.33 L126.600,72.342 L120.655,72.342 L120.655,72.342 Z"/>
<path fill-rule="evenodd"  fill="rgb(38, 169, 225)"
 d="M133.331,81.695 C130.188,81.695 128.381,79.887 128.381,77.250 C128.381,73.740 130.895,70.910 134.780,70.910 C137.923,70.910 139.748,72.717 139.748,75.355 C139.748,78.866 137.216,81.695 133.331,81.695 ZM134.658,72.247 C131.733,72.247 129.883,74.508 129.883,77.154 C129.883,79.49 131.131,80.350 133.462,80.350 C136.387,80.350 138.220,78.88 138.220,75.442 L138.229,75.442 C138.229,73.548 136.998,72.247 134.658,72.247 Z"/>
<path fill-rule="evenodd"  fill="rgb(38, 169, 225)"
 d="M149.185,78.132 L149.176,78.140 L151.105,81.573 L149.507,81.573 L147.674,78.350 L144.575,78.350 L143.946,81.573 L142.428,81.573 L144.531,71.33 L148.460,71.33 C150.931,71.33 152.345,72.159 152.345,74.115 C152.345,76.211 151.166,77.625 149.185,78.132 ZM148.320,72.342 L145.780,72.342 L144.828,77.67 L147.430,77.67 C149.586,77.67 150.834,76.106 150.834,74.255 C150.834,72.989 149.935,72.342 148.320,72.342 Z"/>
<path fill-rule="evenodd"  fill="rgb(38, 169, 225)"
 d="M171.874,71.33 L166.243,81.573 L164.645,81.573 L163.467,73.199 L158.874,81.573 L157.277,81.573 L155.863,71.33 L157.338,71.33 L158.482,79.625 L163.153,71.33 L164.549,71.33 L165.719,79.643 L170.354,71.33 L171.856,71.33 L171.874,71.33 Z"/>
<path fill-rule="evenodd"  fill="rgb(38, 169, 225)"
 d="M180.743,81.573 L180.115,78.935 L180.106,78.935 L174.475,78.935 L172.808,81.573 L171.184,81.573 L178.81,71.33 L179.573,71.33 L182.236,81.573 L180.743,81.573 ZM178.561,72.535 L175.252,77.730 L179.809,77.730 L178.561,72.535 Z"/>
<path fill-rule="evenodd"  fill="rgb(38, 169, 225)"
 d="M192.66,78.132 L192.57,78.140 L193.986,81.573 L192.389,81.573 L190.555,78.350 L187.457,78.350 L186.828,81.573 L185.309,81.573 L187.413,71.33 L191.341,71.33 C193.812,71.33 195.226,72.159 195.226,74.115 C195.226,76.211 194.48,77.625 192.66,78.132 ZM191.201,72.342 L188.661,72.342 L187.709,77.67 L190.311,77.67 C192.459,77.67 193.716,76.106 193.716,74.255 C193.716,72.989 192.817,72.342 191.201,72.342 Z"/>
<path fill-rule="evenodd"  fill="rgb(38, 169, 225)"
 d="M202.463,81.573 L197.749,81.573 L199.853,71.33 L199.861,71.33 L203.982,71.33 C207.177,71.33 209.28,72.735 209.28,75.355 C209.28,79.75 206.409,81.573 202.463,81.573 ZM203.834,72.342 L201.93,72.342 L199.513,80.262 L202.507,80.262 L202.515,80.262 C205.615,80.262 207.509,78.228 207.509,75.442 C207.509,73.548 206.287,72.342 203.834,72.342 Z"/>
<path fill-rule="evenodd"  fill="rgb(38, 169, 225)"
 d="M216.562,80.411 L217.225,79.207 C218.20,79.939 219.329,80.411 220.639,80.411 C222.341,80.411 223.485,79.765 223.485,78.620 C223.485,76.421 218.81,77.555 218.81,74.176 C218.81,72.159 219.888,70.910 222.463,70.910 C223.756,70.910 224.995,71.224 225.851,71.801 L225.248,73.32 C224.463,72.473 223.458,72.185 222.385,72.185 C220.656,72.185 219.556,72.919 219.556,74.36 C219.556,76.246 224.960,75.198 224.960,78.402 C224.960,80.446 223.127,81.686 220.508,81.686 C218.901,81.686 217.330,81.127 216.562,80.403 L216.562,80.411 Z"/>
<path fill-rule="evenodd"  fill="rgb(38, 169, 225)"
 d="M231.892,72.342 L228.295,72.342 L228.548,71.33 L237.261,71.33 L236.990,72.342 L233.393,72.342 L231.542,81.573 L230.50,81.573 L231.883,72.342 L231.892,72.342 Z"/>
<path fill-rule="evenodd"  fill="rgb(38, 169, 225)"
 d="M238.823,78.166 C238.823,77.809 238.867,77.434 238.945,77.23 L240.133,71.33 L241.634,71.33 L240.429,77.6 C240.351,77.363 240.325,77.696 240.325,78.1 C240.325,79.556 241.242,80.350 242.909,80.350 C244.777,80.350 245.903,79.310 246.374,76.996 L247.562,71.33 L249.37,71.33 L247.832,77.101 C247.212,80.175 245.502,81.695 242.778,81.695 C240.281,81.695 238.814,80.367 238.814,78.176 L238.823,78.166 Z"/>
<path fill-rule="evenodd"  fill="rgb(38, 169, 225)"
 d="M256.239,81.573 L251.525,81.573 L253.629,71.33 L253.638,71.33 L257.758,71.33 C260.954,71.33 262.804,72.735 262.804,75.355 C262.804,79.75 260.185,81.573 256.239,81.573 ZM257.610,72.342 L254.869,72.342 L253.289,80.262 L256.283,80.262 L256.292,80.262 C259.391,80.262 261.285,78.228 261.285,75.442 C261.285,73.548 260.63,72.342 257.610,72.342 Z"/>
<path fill-rule="evenodd"  fill="rgb(38, 169, 225)"
 d="M269.779,77.975 L269.55,81.573 L267.553,81.573 L268.295,77.888 L265.511,71.41 L266.986,71.41 L269.255,76.630 L273.760,71.41 L275.358,71.41 L269.788,77.984 L269.779,77.975 Z"/>
</svg>